Catch .44 (2011)
Action | Drama | Western

For Tes (Akerman) and her two cohorts Kara (Nikki Reed) and Tara (Deborah Ann Woll), the job sounded... See full summary »

Director:
Aaron Harvey
Writer:
Aaron Harvey
Stars:
Malin Akerman, Reila Aphrodite and Kevin Beard 

Media info:

General
Complete name                    : E:\torrent2\Catch .44(2011)BluRayrip 1080p.MKV. AVC DTS 5.1-ACB-Team\Catch .44(2011)BluRayrip 1080p.MKV. AVC DTS 5.1-ACB-Team.mkv
Format                           : Matroska
File size                        : 17.3 GiB
Duration                         : 1h 33mn
Overall bit rate                 : 26.4 Mbps
Encoded date                     : UTC 2011-12-09 21:59:53
Writing application              : mkvmerge v3.2.0 ('Beginnings') built on Feb 12 2010 16:46:17
Writing library                  : libebml v0.7.9 + libmatroska v0.8.1

Video
ID                               : 1
Format                           : AVC
Format/Info                      : Advanced Video Codec
Format profile                   : High@L4.1
Format settings, CABAC           : Yes
Format settings, ReFrames        : 2 frames
Muxing mode                      : Container profile=Unknown@4.1
Codec ID                         : V_MPEG4/ISO/AVC
Duration                         : 1h 33mn
Bit rate mode                    : Variable
Bit rate                         : 24.4 Mbps
Width                            : 1 920 pixels
Height                           : 1 080 pixels
Display aspect ratio             : 16:9
Frame rate                       : 23.976 fps
Color space                      : YUV
Chroma subsampling               : 4:2:0
Bit depth                        : 8 bits
Scan type                        : Progressive
Bits/(Pixel*Frame)               : 0.490
Stream size                      : 16.0 GiB (92%)
Language                         : English

Audio
ID                               : 4
Format                           : DTS
Format/Info                      : Digital Theater Systems
Codec ID                         : A_DTS
Duration                         : 1h 33mn
Bit rate mode                    : Constant
Bit rate                         : 1 510 Kbps
Channel(s)                       : 6 channels
Channel positions                : Front: L C R, Side: L R, LFE
Sampling rate                    : 48.0 KHz
Bit depth                        : 24 bits
Stream size                      : 1 014 MiB (6%)
Language                         : English

Text #1
ID                               : 2
Format                           : UTF-8
Codec ID                         : S_TEXT/UTF8
Codec ID/Info                    : UTF-8 Plain Text
Language                         : English

Text #2
ID                               : 3
Format                           : UTF-8
Codec ID                         : S_TEXT/UTF8
Codec ID/Info                    : UTF-8 Plain Text
Language                         : Dutch

Menu
00:00:00.000                     : en:00:00:00.000
00:10:00.000                     : en:00:10:00.000
00:20:00.000                     : en:00:20:00.000
00:30:00.000                     : en:00:30:00.000
00:40:00.000                     : en:00:40:00.000
00:50:00.000                     : en:00:50:00.000
01:00:00.000                     : en:01:00:00.000
01:10:00.000                     : en:01:10:00.000
01:20:00.000                     : en:01:20:00.000
01:30:00.000                     : en:01:30:00.000

tt1886493
